<?xml version="1.0" encoding="utf-8"?>
<!-- Generator: Adobe Illustrator 22.0.1, SVG Export Plug-In . SVG Version: 6.00 Build 0)  -->
<svg version="1.1" id="Layer_1" xmlns="http://www.w3.org/2000/svg" xmlns:xlink="http://www.w3.org/1999/xlink" x="0px" y="0px"
	 viewBox="0 0 43 40" style="enable-background:new 0 0 43 40;" xml:space="preserve">
<style type="text/css">
	.st0{fill:#5A3512;}
</style>
<g>
	<g>
		<path class="st0" d="M18,32.4c-2.1,0-3.8,1.7-3.8,3.8c0,2.1,1.7,3.8,3.8,3.8c2.1,0,3.8-1.7,3.8-3.8C21.8,34.1,20.1,32.4,18,32.4z
			 M18,37.9c-0.9,0-1.7-0.8-1.7-1.7c0-0.9,0.7-1.7,1.7-1.7s1.7,0.8,1.7,1.7C19.7,37.1,19,37.9,18,37.9z M31.3,32.4
			c-2.1,0-3.8,1.7-3.8,3.8c0,2.1,1.7,3.8,3.8,3.8c2.1,0,3.8-1.7,3.8-3.8C35.1,34.1,33.4,32.4,31.3,32.4z M31.3,37.9
			c-0.9,0-1.7-0.8-1.7-1.7c0-0.9,0.7-1.7,1.7-1.7c0.9,0,1.7,0.8,1.7,1.7C33,37.1,32.2,37.9,31.3,37.9z M17.1,14.5h15.1
			c0.6,0,1.1-0.5,1.1-1.1c0-0.6-0.5-1.1-1.1-1.1H17.1c-0.6,0-1.1,0.5-1.1,1.1C16,14,16.5,14.5,17.1,14.5z M31.4,17.9H17.9
			c-0.6,0-1.1,0.5-1.1,1.1c0,0.6,0.5,1.1,1.1,1.1h13.5c0.6,0,1.1-0.5,1.1-1.1C32.5,18.4,32,17.9,31.4,17.9z M42.5,7.7
			c-0.4-0.5-1-0.8-1.6-0.8H8L7.3,3.6C7.2,3,6.7,2.4,6.1,2.1l-4.6-2c-0.5-0.2-1.2,0-1.4,0.6c-0.2,0.5,0,1.2,0.5,1.4l4.6,2L10.4,29
			c0.2,1,1.1,1.7,2.1,1.7h25.3c0.6,0,1.1-0.5,1.1-1.1c0-0.6-0.5-1.1-1.1-1.1H12.5l-0.6-3h26.1c1,0,1.9-0.7,2.1-1.7l3-14.4
			C43.1,8.8,42.9,8.2,42.5,7.7z M37.9,23.4H11.4L8.4,9l32.5,0L37.9,23.4z"/>
	</g>
</g>
</svg>
