<?xml version="1.0" encoding="utf-8"?>
<!-- Generator: Adobe Illustrator 22.0.1, SVG Export Plug-In . SVG Version: 6.00 Build 0)  -->
<svg version="1.1" id="Layer_1" xmlns="http://www.w3.org/2000/svg" xmlns:xlink="http://www.w3.org/1999/xlink" x="0px" y="0px"
	 viewBox="0 0 54.7 57" style="enable-background:new 0 0 54.7 57;" xml:space="preserve">
<style type="text/css">
	.st0{fill:#EDD9D0;}
</style>
<path class="st0" d="M53.9,51.9L40.4,37.8c3.5-4.1,5.4-9.4,5.4-14.8c0-12.7-10.3-23-22.9-23S0,10.3,0,23s10.3,23,22.9,23
	c4.7,0,9.2-1.4,13.1-4.2L49.6,56c0.6,0.6,1.3,0.9,2.2,0.9c0.8,0,1.5-0.3,2.1-0.8C55,55,55,53.1,53.9,51.9z M22.9,6
	c9.3,0,16.9,7.6,16.9,17s-7.6,17-16.9,17S6,32.4,6,23S13.6,6,22.9,6z"/>
</svg>
