<?xml version="1.0" encoding="utf-8"?>
<!-- Generator: Adobe Illustrator 22.0.1, SVG Export Plug-In . SVG Version: 6.00 Build 0)  -->
<svg version="1.1" id="Layer_1" xmlns="http://www.w3.org/2000/svg" xmlns:xlink="http://www.w3.org/1999/xlink" x="0px" y="0px"
	 viewBox="0 0 43 26.4" style="enable-background:new 0 0 43 26.4;" xml:space="preserve">
<style type="text/css">
	.st0{fill:#5A3512;}
</style>
<g>
	<g>
		<path class="st0" d="M42.8,13.6C42.8,13.6,42.8,13.6,42.8,13.6l-6.3-7.3c0,0,0,0,0,0C36.2,6.1,36,6,35.7,6h-5.5V0.9
			c0-0.5-0.4-0.9-0.9-0.9H2.5C2,0,1.6,0.4,1.6,0.9v18.9H0.9c-0.5,0-0.9,0.4-0.9,0.9c0,0.5,0.4,0.9,0.9,0.9h0.7v1
			c0,0.5,0.4,0.9,0.9,0.9h1.7c0.4,1.7,1.9,3.1,3.8,3.1c1.9,0,3.4-1.3,3.8-3.1h20.1v0c0.4,1.7,1.9,3.1,3.8,3.1c1.9,0,3.4-1.3,3.8-3.1
			h2.7c0.5,0,0.9-0.4,0.9-0.9v-8.3C43,14,42.9,13.8,42.8,13.6z M8,24.7c-1.2,0-2.2-1-2.2-2.2c0-1.2,1-2.2,2.2-2.2s2.2,1,2.2,2.2
			C10.1,23.7,9.2,24.7,8,24.7z M28.6,21.6H11.8c-0.4-1.7-1.9-3.1-3.8-3.1s-3.4,1.3-3.8,3.1H3.3v-3.8h25.2V21.6z M28.6,16.1H3.3V1.7
			h25.2V16.1z M36.6,9.1l3.7,4.3h-3.7V9.1z M35.7,24.7c-1.2,0-2.2-1-2.2-2.2c0-1.2,1-2.2,2.2-2.2s2.2,1,2.2,2.2
			C37.8,23.7,36.9,24.7,35.7,24.7z M41.3,21.6h-1.8c-0.4-1.7-1.9-3.1-3.8-3.1c-1.9,0-3.4,1.3-3.8,3.1h-1.6V7.7h4.6v6.5
			c0,0.5,0.4,0.9,0.9,0.9h5.6V21.6z M19.3,15.2h7.2c0.5,0,0.9-0.4,0.9-0.9c0-0.5-0.4-0.9-0.9-0.9h-7.2c-0.5,0-0.9,0.4-0.9,0.9
			C18.4,14.8,18.8,15.2,19.3,15.2z M16.1,15.2h0.5c0.5,0,0.9-0.4,0.9-0.9c0-0.5-0.4-0.9-0.9-0.9h-0.5c-0.5,0-0.9,0.4-0.9,0.9
			C15.3,14.8,15.6,15.2,16.1,15.2z"/>
	</g>
</g>
</svg>
